<svg xmlns="http://www.w3.org/2000/svg" xmlns:xlink="http://www.w3.org/1999/xlink" version="1.1" x="0px" y="0px" viewBox="0 0 100 100" style="enable-background:new 0 0 100 100;" xml:space="preserve"><style type="text/css">
	.st0{fill:none;stroke:#000000;stroke-width:2;stroke-linecap:round;stroke-linejoin:round;stroke-miterlimit:10;}
</style><path d="M89.135,29.01H51.438V11c0-0.553-0.447-1-1-1h-20c-0.553,0-1,0.447-1,1v18.01H11.115c-0.553,0-1,0.447-1,1v20  c0,0.553,0.447,1,1,1h18.322v38.01c0,0.553,0.447,1,1,1h20c0.553,0,1-0.447,1-1V51.01h37.697c0.553,0,1-0.447,1-1v-20  C90.135,29.457,89.688,29.01,89.135,29.01z M31.438,12h18v17.01h-18V12z M49.438,31.01v18h-18v-18H49.438z M12.115,49.01v-18h17.322  v18H12.115z M31.438,88.02V70.755h18V88.02H31.438z M49.438,68.755h-18V51.01h18V68.755z M51.438,31.01h17.229v18H51.438V31.01z   M88.135,49.01H70.667v-18h17.468V49.01z"/></svg>